<?xml version="1.0" encoding="utf-8"?>
<!-- Generator: Adobe Illustrator 19.0.0, SVG Export Plug-In . SVG Version: 6.00 Build 0)  -->
<svg version="1.1" id="Layer_1" xmlns="http://www.w3.org/2000/svg" xmlns:xlink="http://www.w3.org/1999/xlink" x="0px" y="0px"
	 viewBox="29.3 174.5 285.8 97" style="enable-background:new 29.3 174.5 285.8 97;" xml:space="preserve">
<style type="text/css">
	.st0{fill:#349886;}
	.st1{fill:#3DB39E;}
	.st2{fill:#F2B45B;}
	.st3{fill:#E2594D;}
	.st4{fill:#4F4F4F;}
</style>
<g id="XMLID_277_">
	<path id="XMLID_278_" d="M279.6,86c0,1.9-0.3,3.7-0.9,5.2c-0.6,1.6-1.5,2.9-2.6,4c-1.1,1.1-2.4,2-4,2.6c-1.5,0.6-3.3,0.9-5.1,0.9
		h-9.6V73.2h9.6c1.9,0,3.6,0.3,5.1,0.9c1.5,0.6,2.9,1.5,4,2.6c1.1,1.1,2,2.5,2.6,4C279.3,82.3,279.6,84.1,279.6,86z M276.1,86
		c0-1.6-0.2-3-0.6-4.2c-0.4-1.2-1-2.3-1.8-3.1c-0.8-0.9-1.7-1.5-2.9-2c-1.1-0.5-2.4-0.7-3.7-0.7H261v19.9h6.1c1.4,0,2.6-0.2,3.7-0.7
		c1.1-0.5,2.1-1.1,2.9-2s1.4-1.9,1.8-3.1C275.9,89,276.1,87.5,276.1,86z"/>
	<path id="XMLID_281_" d="M291.1,80.4c1.3,0,2.5,0.2,3.6,0.7s2,1.1,2.7,1.9c0.7,0.8,1.3,1.8,1.7,2.9c0.4,1.1,0.6,2.4,0.6,3.8
		c0,1.4-0.2,2.7-0.6,3.9c-0.4,1.1-1,2.1-1.7,2.9c-0.7,0.8-1.6,1.4-2.7,1.9c-1.1,0.4-2.3,0.6-3.6,0.6s-2.5-0.2-3.6-0.6
		c-1.1-0.4-2-1.1-2.7-1.9c-0.7-0.8-1.3-1.8-1.7-2.9c-0.4-1.1-0.6-2.4-0.6-3.9c0-1.4,0.2-2.7,0.6-3.8c0.4-1.1,1-2.1,1.7-2.9
		c0.7-0.8,1.7-1.4,2.7-1.9C288.6,80.6,289.8,80.4,291.1,80.4z M291.1,96.5c1.8,0,3.1-0.6,4-1.8s1.3-2.9,1.3-5c0-2.2-0.4-3.8-1.3-5
		c-0.9-1.2-2.2-1.8-4-1.8c-0.9,0-1.7,0.2-2.4,0.5s-1.2,0.8-1.7,1.3c-0.4,0.6-0.8,1.3-1,2.1c-0.2,0.9-0.3,1.8-0.3,2.9s0.1,2,0.3,2.9
		c0.2,0.8,0.6,1.6,1,2.1c0.4,0.6,1,1,1.7,1.3C289.5,96.4,290.2,96.5,291.1,96.5z"/>
	<path id="XMLID_284_" d="M301.3,80.7h2.5c0.3,0,0.5,0.1,0.6,0.2c0.2,0.1,0.3,0.3,0.3,0.5l3.5,11.6c0.1,0.4,0.2,0.8,0.3,1.2
		c0.1,0.4,0.2,0.8,0.2,1.2c0.1-0.4,0.2-0.8,0.3-1.2c0.1-0.4,0.2-0.8,0.4-1.2l3.8-11.7c0.1-0.2,0.2-0.3,0.3-0.4
		c0.1-0.1,0.3-0.2,0.6-0.2h1.4c0.2,0,0.4,0.1,0.6,0.2c0.2,0.1,0.3,0.3,0.3,0.4l3.7,11.7c0.1,0.4,0.2,0.8,0.3,1.2
		c0.1,0.4,0.2,0.8,0.3,1.2c0.1-0.4,0.1-0.8,0.2-1.2c0.1-0.4,0.2-0.8,0.3-1.2l3.5-11.6c0.1-0.2,0.2-0.3,0.3-0.5
		c0.2-0.1,0.4-0.2,0.6-0.2h2.4l-5.8,18.1h-2.5c-0.3,0-0.5-0.2-0.6-0.6l-4-12.2c-0.1-0.3-0.2-0.5-0.2-0.8c-0.1-0.3-0.1-0.6-0.2-0.8
		c-0.1,0.3-0.1,0.6-0.2,0.8c-0.1,0.3-0.1,0.6-0.2,0.8l-4,12.2c-0.1,0.4-0.4,0.6-0.7,0.6h-2.4L301.3,80.7z"/>
	<path id="XMLID_286_" d="M333.8,97.3V79.2h1.9c0.5,0,0.7,0.2,0.9,0.7l0.3,2c0.8-0.9,1.7-1.6,2.6-2.1c1-0.5,2.1-0.8,3.4-0.8
		c1,0,1.9,0.2,2.6,0.5c0.8,0.3,1.4,0.8,1.9,1.4c0.5,0.6,0.9,1.3,1.1,2.2c0.3,0.8,0.4,1.8,0.4,2.8v11.5h-3.2V85.8
		c0-1.4-0.3-2.4-0.9-3.2c-0.6-0.8-1.6-1.1-2.9-1.1c-0.9,0-1.8,0.2-2.6,0.7c-0.8,0.5-1.6,1.1-2.3,1.8v13.3L333.8,97.3L333.8,97.3z"/>
	<path id="XMLID_288_" d="M354.3,72.5v26.3h-3.2V72.5H354.3z"/>
	<path id="XMLID_290_" d="M367.2,80.4c1.3,0,2.5,0.2,3.6,0.7s2,1.1,2.7,1.9c0.7,0.8,1.3,1.8,1.7,2.9c0.4,1.1,0.6,2.4,0.6,3.8
		c0,1.4-0.2,2.7-0.6,3.9c-0.4,1.1-1,2.1-1.7,2.9c-0.7,0.8-1.6,1.4-2.7,1.9c-1.1,0.4-2.3,0.6-3.6,0.6c-1.3,0-2.5-0.2-3.6-0.6
		c-1.1-0.4-2-1.1-2.7-1.9c-0.7-0.8-1.3-1.8-1.7-2.9c-0.4-1.1-0.6-2.4-0.6-3.9c0-1.4,0.2-2.7,0.6-3.8c0.4-1.1,1-2.1,1.7-2.9
		c0.7-0.8,1.7-1.4,2.7-1.9C364.7,80.6,365.9,80.4,367.2,80.4z M367.2,96.5c1.8,0,3.1-0.6,4-1.8s1.3-2.9,1.3-5c0-2.2-0.4-3.8-1.3-5
		c-0.9-1.2-2.2-1.8-4-1.8c-0.9,0-1.7,0.2-2.4,0.5c-0.7,0.3-1.2,0.8-1.7,1.3c-0.4,0.6-0.8,1.3-1,2.1c-0.2,0.9-0.3,1.8-0.3,2.9
		s0.1,2,0.3,2.9c0.2,0.8,0.6,1.6,1,2.1c0.4,0.6,1,1,1.7,1.3C365.5,96.4,366.3,96.5,367.2,96.5z"/>
	<path id="XMLID_293_" d="M393,98.7h-1.4c-0.3,0-0.6,0-0.7-0.1s-0.3-0.3-0.4-0.6l-0.4-1.7c-0.5,0.4-0.9,0.8-1.4,1.1
		c-0.5,0.3-0.9,0.6-1.4,0.9c-0.5,0.2-1,0.4-1.6,0.5c-0.6,0.1-1.2,0.2-1.9,0.2c-0.7,0-1.4-0.1-2-0.3c-0.6-0.2-1.1-0.5-1.6-0.9
		c-0.5-0.4-0.8-0.9-1.1-1.5s-0.4-1.3-0.4-2.1c0-0.7,0.2-1.4,0.6-2.1c0.4-0.7,1-1.2,1.9-1.8s2-0.9,3.4-1.3c1.4-0.3,3.1-0.5,5.2-0.6
		v-1.4c0-1.4-0.3-2.5-0.9-3.2c-0.6-0.7-1.5-1.1-2.7-1.1c-0.8,0-1.4,0.1-2,0.3c-0.5,0.2-1,0.4-1.4,0.7c-0.4,0.2-0.7,0.5-1,0.7
		c-0.3,0.2-0.6,0.3-0.8,0.3c-0.2,0-0.4-0.1-0.6-0.2c-0.2-0.1-0.3-0.3-0.4-0.4l-0.6-1c1-1,2.1-1.7,3.2-2.2c1.2-0.5,2.4-0.7,3.8-0.7
		c1,0,1.9,0.2,2.7,0.5c0.8,0.3,1.4,0.8,2,1.4c0.5,0.6,0.9,1.3,1.2,2.2c0.3,0.8,0.4,1.8,0.4,2.8L393,98.7L393,98.7L393,98.7z
		 M384.8,96.8c0.6,0,1.1-0.1,1.5-0.2c0.5-0.1,0.9-0.3,1.3-0.5s0.8-0.5,1.2-0.8c0.4-0.3,0.7-0.6,1.1-1v-3.8c-1.5,0-2.7,0.2-3.7,0.3
		c-1,0.2-1.9,0.4-2.5,0.7c-0.6,0.3-1.1,0.6-1.4,1.1c-0.3,0.4-0.4,0.9-0.4,1.4c0,0.5,0.1,0.9,0.2,1.2c0.2,0.3,0.4,0.6,0.6,0.8
		c0.3,0.2,0.6,0.4,0.9,0.5C384,96.8,384.4,96.8,384.8,96.8z"/>
	<path id="XMLID_296_" d="M410.5,98.7c-0.5,0-0.7-0.2-0.9-0.7l-0.3-2.2c-0.8,0.9-1.7,1.7-2.6,2.3c-1,0.6-2.1,0.8-3.4,0.8
		c-1,0-2-0.2-2.8-0.6c-0.8-0.4-1.6-1-2.2-1.8c-0.6-0.8-1.1-1.7-1.4-2.9c-0.3-1.2-0.5-2.5-0.5-4c0-1.3,0.2-2.6,0.5-3.7s0.9-2.1,1.5-3
		c0.7-0.8,1.5-1.5,2.5-2c1-0.5,2.1-0.7,3.3-0.7c1.1,0,2.1,0.2,2.8,0.6c0.8,0.4,1.5,0.9,2.1,1.6v-10h3.2v26.3H410.5z M404.4,96.4
		c1,0,1.9-0.2,2.7-0.7c0.8-0.5,1.5-1.1,2.1-2V85c-0.6-0.8-1.2-1.3-1.9-1.6c-0.7-0.3-1.5-0.5-2.3-0.5c-1.7,0-3,0.6-3.9,1.8
		c-0.9,1.2-1.4,2.9-1.4,5.1c0,1.2,0.1,2.2,0.3,3c0.2,0.8,0.5,1.5,0.9,2.1c0.4,0.5,0.9,0.9,1.4,1.2C403,96.3,403.6,96.4,404.4,96.4z"
		/>
	<path id="XMLID_299_" d="M428.9,84.4h1.3c0.5,0,0.8-0.1,1.1-0.2c0.3-0.1,0.5-0.3,0.8-0.6l8.5-9.6c0.3-0.3,0.5-0.5,0.8-0.6
		c0.2-0.1,0.6-0.2,0.9-0.2h2.9l-9.7,11c-0.2,0.3-0.5,0.5-0.7,0.7c-0.2,0.2-0.5,0.3-0.7,0.5c0.3,0.1,0.6,0.3,0.9,0.5
		c0.2,0.2,0.5,0.5,0.8,0.8l10.2,12.1h-3c-0.2,0-0.4,0-0.6-0.1c-0.2,0-0.3-0.1-0.4-0.1c-0.1-0.1-0.2-0.1-0.3-0.2s-0.2-0.2-0.3-0.3
		l-8.8-10.1c-0.1-0.1-0.3-0.3-0.4-0.4c-0.1-0.1-0.2-0.2-0.4-0.3c-0.1-0.1-0.3-0.1-0.5-0.2c-0.2,0-0.4,0-0.7,0h-1.6v11.7h-3.4V73.2
		h3.4L428.9,84.4L428.9,84.4L428.9,84.4z"/>
	<path id="XMLID_301_" d="M462.2,98.7h-1.4c-0.3,0-0.6,0-0.7-0.1s-0.3-0.3-0.4-0.6l-0.4-1.7c-0.5,0.4-0.9,0.8-1.4,1.1
		c-0.5,0.3-0.9,0.6-1.4,0.9c-0.5,0.2-1,0.4-1.6,0.5c-0.6,0.1-1.2,0.2-1.9,0.2c-0.7,0-1.4-0.1-2-0.3c-0.6-0.2-1.1-0.5-1.6-0.9
		c-0.5-0.4-0.8-0.9-1.1-1.5s-0.4-1.3-0.4-2.1c0-0.7,0.2-1.4,0.6-2.1s1-1.2,1.9-1.8s2-0.9,3.4-1.3c1.4-0.3,3.1-0.5,5.2-0.6v-1.4
		c0-1.4-0.3-2.5-0.9-3.2c-0.6-0.7-1.5-1.1-2.7-1.1c-0.8,0-1.4,0.1-2,0.3c-0.5,0.2-1,0.4-1.4,0.7c-0.4,0.2-0.7,0.5-1,0.7
		c-0.3,0.2-0.6,0.3-0.8,0.3c-0.2,0-0.4-0.1-0.6-0.2c-0.2-0.1-0.3-0.3-0.4-0.4l-0.6-1c1-1,2.1-1.7,3.2-2.2c1.2-0.5,2.4-0.7,3.8-0.7
		c1,0,1.9,0.2,2.7,0.5c0.8,0.3,1.4,0.8,2,1.4c0.5,0.6,0.9,1.3,1.2,2.2c0.3,0.8,0.4,1.8,0.4,2.8V98.7L462.2,98.7L462.2,98.7z
		 M453.9,96.8c0.6,0,1.1-0.1,1.5-0.2c0.5-0.1,0.9-0.3,1.3-0.5c0.4-0.2,0.8-0.5,1.2-0.8c0.4-0.3,0.7-0.6,1.1-1v-3.8
		c-1.5,0-2.7,0.2-3.7,0.3c-1,0.2-1.9,0.4-2.5,0.7c-0.6,0.3-1.1,0.6-1.4,1.1c-0.3,0.4-0.4,0.9-0.4,1.4c0,0.5,0.1,0.9,0.2,1.2
		c0.2,0.3,0.4,0.6,0.6,0.8c0.3,0.2,0.6,0.4,0.9,0.5C453.1,96.8,453.5,96.8,453.9,96.8z"/>
	<path id="XMLID_304_" d="M471.7,104.1c-0.1,0.2-0.2,0.4-0.4,0.6c-0.2,0.1-0.4,0.2-0.7,0.2h-2.4l3.3-7.2l-7.5-17h2.7
		c0.3,0,0.5,0.1,0.6,0.2c0.2,0.1,0.3,0.3,0.3,0.5l4.8,11.4c0.1,0.3,0.2,0.5,0.3,0.8c0.1,0.3,0.1,0.5,0.2,0.8
		c0.1-0.3,0.2-0.5,0.3-0.8c0.1-0.3,0.2-0.5,0.3-0.8l4.7-11.4c0.1-0.2,0.2-0.3,0.4-0.5c0.2-0.1,0.4-0.2,0.6-0.2h2.5L471.7,104.1z"/>
	<path id="XMLID_306_" d="M497.9,98.7h-1.4c-0.3,0-0.6,0-0.7-0.1s-0.3-0.3-0.4-0.6l-0.4-1.7c-0.5,0.4-0.9,0.8-1.4,1.1
		c-0.5,0.3-0.9,0.6-1.4,0.9c-0.5,0.2-1,0.4-1.6,0.5s-1.2,0.2-1.9,0.2c-0.7,0-1.4-0.1-2-0.3c-0.6-0.2-1.1-0.5-1.6-0.9
		c-0.5-0.4-0.8-0.9-1.1-1.5s-0.4-1.3-0.4-2.1c0-0.7,0.2-1.4,0.6-2.1c0.4-0.7,1-1.2,1.9-1.8s2-0.9,3.4-1.3c1.4-0.3,3.1-0.5,5.2-0.6
		v-1.4c0-1.4-0.3-2.5-0.9-3.2c-0.6-0.7-1.5-1.1-2.7-1.1c-0.8,0-1.4,0.1-2,0.3c-0.5,0.2-1,0.4-1.4,0.7c-0.4,0.2-0.7,0.5-1,0.7
		c-0.3,0.2-0.6,0.3-0.8,0.3c-0.2,0-0.4-0.1-0.6-0.2s-0.3-0.3-0.4-0.4l-0.6-1c1-1,2.1-1.7,3.2-2.2c1.2-0.5,2.4-0.7,3.8-0.7
		c1,0,1.9,0.2,2.7,0.5c0.8,0.3,1.4,0.8,2,1.4c0.5,0.6,0.9,1.3,1.2,2.2c0.3,0.8,0.4,1.8,0.4,2.8L497.9,98.7L497.9,98.7L497.9,98.7z
		 M489.7,96.8c0.6,0,1.1-0.1,1.5-0.2c0.5-0.1,0.9-0.3,1.3-0.5c0.4-0.2,0.8-0.5,1.2-0.8c0.4-0.3,0.7-0.6,1.1-1v-3.8
		c-1.5,0-2.7,0.2-3.7,0.3c-1,0.2-1.9,0.4-2.5,0.7c-0.6,0.3-1.1,0.6-1.4,1.1c-0.3,0.4-0.4,0.9-0.4,1.4c0,0.5,0.1,0.9,0.2,1.2
		c0.2,0.3,0.4,0.6,0.6,0.8s0.6,0.4,0.9,0.5C488.9,96.8,489.3,96.8,489.7,96.8z"/>
	<path id="XMLID_309_" d="M500.1,80.7h2.5c0.3,0,0.5,0.1,0.6,0.2c0.2,0.1,0.3,0.3,0.3,0.5L507,93c0.1,0.4,0.2,0.8,0.3,1.2
		c0.1,0.4,0.2,0.8,0.2,1.2c0.1-0.4,0.2-0.8,0.3-1.2c0.1-0.4,0.2-0.8,0.4-1.2l3.8-11.7c0.1-0.2,0.2-0.3,0.3-0.4
		c0.1-0.1,0.3-0.2,0.6-0.2h1.4c0.2,0,0.4,0.1,0.6,0.2c0.2,0.1,0.3,0.3,0.3,0.4l3.7,11.7c0.1,0.4,0.2,0.8,0.3,1.2
		c0.1,0.4,0.2,0.8,0.3,1.2c0.1-0.4,0.1-0.8,0.2-1.2c0.1-0.4,0.2-0.8,0.3-1.2l3.5-11.6c0.1-0.2,0.2-0.3,0.3-0.5
		c0.2-0.1,0.4-0.2,0.6-0.2h2.4l-5.8,18.1h-2.5c-0.3,0-0.5-0.2-0.6-0.6l-4-12.2c-0.1-0.3-0.2-0.5-0.2-0.8c-0.1-0.3-0.1-0.6-0.2-0.8
		c-0.1,0.3-0.1,0.6-0.2,0.8c-0.1,0.3-0.1,0.6-0.2,0.8l-4,12.2c-0.1,0.4-0.4,0.6-0.7,0.6H506L500.1,80.7z"/>
	<path id="XMLID_311_" d="M536.9,80.4c1.1,0,2.1,0.2,3,0.5c0.9,0.4,1.7,0.9,2.4,1.6c0.7,0.7,1.2,1.5,1.6,2.5c0.4,1,0.6,2.1,0.6,3.4
		c0,0.5-0.1,0.8-0.2,1c-0.1,0.2-0.3,0.3-0.6,0.3h-12c0,1.1,0.2,2.1,0.5,3c0.3,0.8,0.7,1.5,1.2,2.1c0.5,0.6,1.1,1,1.8,1.3
		s1.5,0.4,2.3,0.4c0.8,0,1.5-0.1,2.1-0.3c0.6-0.2,1.1-0.4,1.5-0.6c0.4-0.2,0.8-0.4,1-0.6c0.3-0.2,0.5-0.3,0.7-0.3
		c0.3,0,0.5,0.1,0.6,0.3l0.9,1.2c-0.4,0.5-0.9,0.9-1.4,1.2c-0.5,0.4-1.1,0.6-1.8,0.9c-0.6,0.2-1.3,0.4-1.9,0.5
		c-0.7,0.1-1.3,0.2-2,0.2c-1.2,0-2.4-0.2-3.5-0.6s-2-1-2.7-1.9c-0.8-0.8-1.4-1.8-1.8-3c-0.4-1.2-0.6-2.6-0.6-4.1
		c0-1.3,0.2-2.4,0.6-3.5s0.9-2,1.7-2.8s1.6-1.4,2.7-1.9C534.4,80.6,535.6,80.4,536.9,80.4z M537,82.7c-1.5,0-2.7,0.4-3.6,1.3
		c-0.9,0.9-1.4,2.1-1.6,3.7h9.8c0-0.7-0.1-1.4-0.3-2c-0.2-0.6-0.5-1.1-0.9-1.6c-0.4-0.4-0.9-0.8-1.4-1
		C538.4,82.9,537.7,82.7,537,82.7z"/>
	<path id="XMLID_314_" d="M552,72.5v26.3h-3.2V72.5H552z"/>
	<path id="XMLID_316_" d="M561.1,72.5v26.3h-3.2V72.5H561.1z"/>
	<path id="XMLID_318_" d="M595.1,98.7h-2.7c-0.3,0-0.6-0.1-0.7-0.2c-0.2-0.2-0.3-0.4-0.4-0.6l-2.4-6.2h-11.5l-2.4,6.2
		c-0.1,0.2-0.2,0.4-0.4,0.6c-0.2,0.2-0.5,0.3-0.7,0.3h-2.7l10.2-25.5h3.5L595.1,98.7z M578.4,89.3h9.5l-4-10.4
		c-0.3-0.6-0.5-1.4-0.8-2.4c-0.1,0.5-0.3,0.9-0.4,1.3c-0.1,0.4-0.2,0.8-0.4,1.1L578.4,89.3z"/>
	<path id="XMLID_321_" d="M597.8,104.9V80.7h1.9c0.5,0,0.7,0.2,0.9,0.7l0.3,2.1c0.8-0.9,1.7-1.7,2.6-2.3c1-0.6,2.1-0.9,3.4-0.9
		c1,0,2,0.2,2.8,0.6c0.8,0.4,1.6,1,2.2,1.8c0.6,0.8,1.1,1.7,1.4,2.9c0.3,1.2,0.5,2.5,0.5,4c0,1.3-0.2,2.6-0.5,3.7
		c-0.4,1.1-0.9,2.1-1.5,3c-0.7,0.8-1.5,1.5-2.5,2c-1,0.5-2.1,0.7-3.3,0.7c-1.1,0-2.1-0.2-2.9-0.6c-0.8-0.4-1.5-0.9-2.1-1.6v8
		L597.8,104.9L597.8,104.9L597.8,104.9z M605.9,82.9c-1,0-1.9,0.2-2.7,0.7c-0.8,0.5-1.5,1.1-2.1,2v8.7c0.6,0.8,1.2,1.3,1.9,1.7
		c0.7,0.3,1.5,0.5,2.3,0.5c1.7,0,3-0.6,3.9-1.8c0.9-1.2,1.4-2.9,1.4-5.1c0-1.2-0.1-2.2-0.3-3c-0.2-0.8-0.5-1.5-0.9-2.1
		c-0.4-0.5-0.9-0.9-1.4-1.2C607.2,83.1,606.6,82.9,605.9,82.9z"/>
	<path id="XMLID_324_" d="M617.5,104.9V80.7h1.9c0.5,0,0.7,0.2,0.9,0.7l0.3,2.1c0.8-0.9,1.7-1.7,2.6-2.3c1-0.6,2.1-0.9,3.4-0.9
		c1,0,2,0.2,2.8,0.6c0.8,0.4,1.6,1,2.2,1.8c0.6,0.8,1.1,1.7,1.4,2.9c0.3,1.2,0.5,2.5,0.5,4c0,1.3-0.2,2.6-0.5,3.7
		c-0.4,1.1-0.9,2.1-1.5,3c-0.7,0.8-1.5,1.5-2.5,2c-1,0.5-2.1,0.7-3.3,0.7c-1.1,0-2.1-0.2-2.9-0.6c-0.8-0.4-1.5-0.9-2.1-1.6v8
		L617.5,104.9L617.5,104.9L617.5,104.9z M625.6,82.9c-1,0-1.9,0.2-2.7,0.7c-0.8,0.5-1.5,1.1-2.1,2v8.7c0.6,0.8,1.2,1.3,1.9,1.7
		c0.7,0.3,1.5,0.5,2.3,0.5c1.7,0,3-0.6,3.9-1.8c0.9-1.2,1.4-2.9,1.4-5.1c0-1.2-0.1-2.2-0.3-3c-0.2-0.8-0.5-1.5-0.9-2.1
		c-0.4-0.5-0.9-0.9-1.4-1.2C626.9,83.1,626.3,82.9,625.6,82.9z"/>
</g>
<g>
	<path d="M266.7,137.3h-1.5c-0.2,0-0.3,0-0.4-0.1c-0.1-0.1-0.2-0.2-0.2-0.3l-1.3-3.5h-6.4l-1.3,3.5c0,0.1-0.1,0.2-0.2,0.3
		c-0.1,0.1-0.3,0.1-0.4,0.1h-1.5L259,123h2L266.7,137.3z M257.3,132h5.3l-2.3-5.8c-0.1-0.4-0.3-0.8-0.4-1.4
		c-0.1,0.3-0.1,0.5-0.2,0.8c-0.1,0.2-0.1,0.4-0.2,0.6L257.3,132z"/>
	<path d="M292.6,123v1.6H288v12.7h-1.9v-12.7h-4.6V123H292.6z"/>
	<path d="M301.7,127c0.7,0,1.4,0.1,2,0.4c0.6,0.2,1.1,0.6,1.5,1c0.4,0.5,0.7,1,1,1.6c0.2,0.6,0.3,1.4,0.3,2.2c0,0.8-0.1,1.5-0.3,2.2
		s-0.5,1.2-1,1.6c-0.4,0.5-0.9,0.8-1.5,1c-0.6,0.2-1.3,0.4-2,0.4c-0.7,0-1.4-0.1-2-0.4c-0.6-0.2-1.1-0.6-1.5-1c-0.4-0.5-0.7-1-1-1.6
		c-0.2-0.6-0.3-1.4-0.3-2.2c0-0.8,0.1-1.5,0.3-2.2c0.2-0.6,0.6-1.2,1-1.6c0.4-0.5,0.9-0.8,1.5-1C300.3,127.1,300.9,127,301.7,127z
		 M301.7,136c1,0,1.7-0.3,2.2-1c0.5-0.7,0.7-1.6,0.7-2.8c0-1.2-0.2-2.1-0.7-2.8c-0.5-0.7-1.2-1-2.2-1c-0.5,0-0.9,0.1-1.3,0.3
		c-0.4,0.2-0.7,0.4-0.9,0.8c-0.3,0.3-0.4,0.7-0.6,1.2c-0.1,0.5-0.2,1-0.2,1.6c0,0.6,0.1,1.1,0.2,1.6c0.1,0.5,0.3,0.9,0.6,1.2
		s0.6,0.6,0.9,0.7C300.7,135.9,301.2,136,301.7,136z"/>
	<path d="M317.1,137.4c-0.8,0-1.4-0.2-1.8-0.7c-0.4-0.4-0.6-1.1-0.6-1.9v-6.2h-1.2c-0.1,0-0.2,0-0.3-0.1s-0.1-0.2-0.1-0.3v-0.7
		l1.7-0.2l0.4-3.1c0-0.1,0.1-0.2,0.1-0.2s0.2-0.1,0.3-0.1h0.9v3.5h2.9v1.3h-2.9v6.1c0,0.4,0.1,0.7,0.3,1c0.2,0.2,0.5,0.3,0.8,0.3
		c0.2,0,0.3,0,0.5-0.1s0.3-0.1,0.4-0.2c0.1-0.1,0.2-0.1,0.3-0.2c0.1,0,0.1-0.1,0.2-0.1c0.1,0,0.2,0.1,0.3,0.2l0.5,0.9
		c-0.3,0.3-0.7,0.5-1.1,0.7C318,137.4,317.5,137.4,317.1,137.4z"/>
	<path d="M334.2,137.3h-0.8c-0.2,0-0.3,0-0.4-0.1s-0.2-0.2-0.2-0.3l-0.2-0.9c-0.3,0.2-0.5,0.5-0.8,0.6c-0.3,0.2-0.5,0.4-0.8,0.5
		c-0.3,0.1-0.6,0.2-0.9,0.3c-0.3,0.1-0.7,0.1-1.1,0.1c-0.4,0-0.8-0.1-1.1-0.2c-0.3-0.1-0.6-0.3-0.9-0.5c-0.3-0.2-0.5-0.5-0.6-0.8
		s-0.2-0.7-0.2-1.2c0-0.4,0.1-0.8,0.3-1.2s0.6-0.7,1.1-1c0.5-0.3,1.1-0.5,1.9-0.7s1.8-0.3,2.9-0.3v-0.8c0-0.8-0.2-1.4-0.5-1.8
		c-0.3-0.4-0.8-0.6-1.5-0.6c-0.4,0-0.8,0.1-1.1,0.2c-0.3,0.1-0.6,0.2-0.8,0.4c-0.2,0.1-0.4,0.3-0.6,0.4c-0.2,0.1-0.3,0.2-0.5,0.2
		c-0.1,0-0.2,0-0.3-0.1c-0.1-0.1-0.2-0.1-0.2-0.2l-0.3-0.6c0.6-0.5,1.2-0.9,1.8-1.2c0.6-0.3,1.4-0.4,2.1-0.4c0.6,0,1.1,0.1,1.5,0.3
		s0.8,0.4,1.1,0.8c0.3,0.3,0.5,0.7,0.7,1.2c0.2,0.5,0.2,1,0.2,1.6C334.2,130.8,334.2,137.3,334.2,137.3z M329.5,136.2
		c0.3,0,0.6,0,0.9-0.1c0.3-0.1,0.5-0.2,0.7-0.3c0.2-0.1,0.4-0.3,0.7-0.4c0.2-0.2,0.4-0.4,0.6-0.6v-2.1c-0.8,0-1.5,0.1-2.1,0.2
		c-0.6,0.1-1,0.2-1.4,0.4c-0.4,0.2-0.6,0.4-0.8,0.6c-0.2,0.2-0.2,0.5-0.2,0.8c0,0.3,0,0.5,0.1,0.7c0.1,0.2,0.2,0.4,0.3,0.5
		s0.3,0.2,0.5,0.3C329.1,136.2,329.3,136.2,329.5,136.2z"/>
	<path d="M344.1,122.6v14.7h-1.8v-14.7H344.1z"/>
	<path d="M373.6,137.3h-2v-6.5h-7.7v6.5H362V123h1.9v6.4h7.7V123h2V137.3z"/>
	<path d="M386.1,127c0.6,0,1.2,0.1,1.7,0.3s1,0.5,1.3,0.9c0.4,0.4,0.7,0.9,0.9,1.4c0.2,0.6,0.3,1.2,0.3,1.9c0,0.3,0,0.5-0.1,0.6
		s-0.2,0.1-0.3,0.1h-6.7c0,0.6,0.1,1.2,0.3,1.7c0.2,0.5,0.4,0.9,0.7,1.2c0.3,0.3,0.6,0.6,1,0.7s0.8,0.2,1.3,0.2
		c0.4,0,0.8-0.1,1.2-0.2s0.6-0.2,0.8-0.3c0.2-0.1,0.4-0.2,0.6-0.3c0.2-0.1,0.3-0.2,0.4-0.2c0.1,0,0.3,0.1,0.3,0.2l0.5,0.6
		c-0.2,0.3-0.5,0.5-0.8,0.7c-0.3,0.2-0.6,0.4-1,0.5c-0.4,0.1-0.7,0.2-1.1,0.3c-0.4,0.1-0.7,0.1-1.1,0.1c-0.7,0-1.3-0.1-1.9-0.4
		c-0.6-0.2-1.1-0.6-1.5-1c-0.4-0.5-0.8-1-1-1.7c-0.2-0.7-0.4-1.4-0.4-2.3c0-0.7,0.1-1.4,0.3-2s0.5-1.1,0.9-1.6
		c0.4-0.4,0.9-0.8,1.5-1.1C384.7,127.1,385.4,127,386.1,127z M386.1,128.3c-0.9,0-1.5,0.2-2,0.7c-0.5,0.5-0.8,1.2-0.9,2.1h5.5
		c0-0.4-0.1-0.8-0.2-1.1c-0.1-0.3-0.3-0.6-0.5-0.9s-0.5-0.4-0.8-0.6C386.9,128.4,386.5,128.3,386.1,128.3z"/>
	<path d="M405.3,137.3h-0.8c-0.2,0-0.3,0-0.4-0.1s-0.2-0.2-0.2-0.3l-0.2-0.9c-0.3,0.2-0.5,0.5-0.8,0.6c-0.3,0.2-0.5,0.4-0.8,0.5
		c-0.3,0.1-0.6,0.2-0.9,0.3c-0.3,0.1-0.7,0.1-1.1,0.1c-0.4,0-0.8-0.1-1.1-0.2c-0.3-0.1-0.6-0.3-0.9-0.5c-0.3-0.2-0.5-0.5-0.6-0.8
		s-0.2-0.7-0.2-1.2c0-0.4,0.1-0.8,0.3-1.2s0.6-0.7,1.1-1c0.5-0.3,1.1-0.5,1.9-0.7s1.8-0.3,2.9-0.3v-0.8c0-0.8-0.2-1.4-0.5-1.8
		c-0.3-0.4-0.8-0.6-1.5-0.6c-0.4,0-0.8,0.1-1.1,0.2c-0.3,0.1-0.6,0.2-0.8,0.4c-0.2,0.1-0.4,0.3-0.6,0.4c-0.2,0.1-0.3,0.2-0.5,0.2
		c-0.1,0-0.2,0-0.3-0.1c-0.1-0.1-0.2-0.1-0.2-0.2l-0.3-0.6c0.6-0.5,1.2-0.9,1.8-1.2c0.6-0.3,1.4-0.4,2.1-0.4c0.6,0,1.1,0.1,1.5,0.3
		s0.8,0.4,1.1,0.8c0.3,0.3,0.5,0.7,0.7,1.2c0.2,0.5,0.2,1,0.2,1.6L405.3,137.3L405.3,137.3z M400.7,136.2c0.3,0,0.6,0,0.9-0.1
		c0.3-0.1,0.5-0.2,0.7-0.3c0.2-0.1,0.5-0.3,0.7-0.4c0.2-0.2,0.4-0.4,0.6-0.6v-2.1c-0.8,0-1.5,0.1-2.1,0.2c-0.6,0.1-1,0.2-1.4,0.4
		c-0.4,0.2-0.6,0.4-0.8,0.6c-0.2,0.2-0.2,0.5-0.2,0.8c0,0.3,0,0.5,0.1,0.7s0.2,0.4,0.4,0.5c0.1,0.1,0.3,0.2,0.5,0.3
		C400.2,136.2,400.4,136.2,400.7,136.2z"/>
	<path d="M415.2,122.6v14.7h-1.8v-14.7H415.2z"/>
	<path d="M426.7,137.4c-0.8,0-1.4-0.2-1.8-0.7c-0.4-0.4-0.6-1.1-0.6-1.9v-6.2H423c-0.1,0-0.2,0-0.3-0.1s-0.1-0.2-0.1-0.3v-0.7
		l1.7-0.2l0.4-3.1c0-0.1,0.1-0.2,0.1-0.2s0.2-0.1,0.3-0.1h0.9v3.5h2.9v1.3H426v6.1c0,0.4,0.1,0.7,0.3,1c0.2,0.2,0.5,0.3,0.8,0.3
		c0.2,0,0.3,0,0.5-0.1s0.3-0.1,0.4-0.2c0.1-0.1,0.2-0.1,0.3-0.2c0.1,0,0.1-0.1,0.2-0.1c0.1,0,0.2,0.1,0.3,0.2l0.5,0.9
		c-0.3,0.3-0.7,0.5-1.1,0.7C427.6,137.4,427.2,137.4,426.7,137.4z"/>
	<path d="M436.4,137.3v-14.7h1.8v6c0.4-0.5,0.9-0.8,1.4-1.1c0.5-0.3,1.1-0.4,1.8-0.4c0.6,0,1,0.1,1.5,0.3c0.4,0.2,0.8,0.4,1.1,0.8
		c0.3,0.3,0.5,0.7,0.6,1.2c0.1,0.5,0.2,1,0.2,1.6v6.5h-1.8v-6.5c0-0.8-0.2-1.4-0.5-1.8c-0.4-0.4-0.9-0.6-1.6-0.6
		c-0.5,0-1,0.1-1.5,0.4c-0.5,0.3-0.9,0.6-1.3,1v7.5L436.4,137.3L436.4,137.3z"/>
	<path d="M463.2,134.3c0.1,0,0.2,0,0.3,0.1l0.8,0.8c-0.6,0.7-1.3,1.2-2.1,1.6s-1.8,0.6-3,0.6c-1,0-2-0.2-2.8-0.5s-1.6-0.9-2.1-1.5
		c-0.6-0.6-1.1-1.4-1.4-2.3c-0.3-0.9-0.5-1.9-0.5-3s0.2-2.1,0.5-3c0.4-0.9,0.8-1.7,1.5-2.3c0.6-0.6,1.4-1.1,2.3-1.5
		c0.9-0.4,1.9-0.5,2.9-0.5c1.1,0,2,0.2,2.7,0.5c0.8,0.3,1.4,0.8,2,1.3l-0.6,0.9c0,0.1-0.1,0.1-0.2,0.2c-0.1,0-0.1,0.1-0.3,0.1
		c-0.1,0-0.2,0-0.3-0.1s-0.2-0.1-0.3-0.2c-0.1-0.1-0.3-0.2-0.5-0.3c-0.2-0.1-0.4-0.2-0.6-0.3c-0.2-0.1-0.5-0.2-0.9-0.2
		c-0.3-0.1-0.7-0.1-1.1-0.1c-0.8,0-1.5,0.1-2.1,0.4c-0.6,0.3-1.2,0.6-1.6,1.1c-0.5,0.5-0.8,1.1-1.1,1.8c-0.3,0.7-0.4,1.5-0.4,2.4
		c0,0.9,0.1,1.7,0.4,2.4c0.3,0.7,0.6,1.3,1.1,1.8c0.4,0.5,1,0.9,1.6,1.1c0.6,0.3,1.3,0.4,2,0.4c0.4,0,0.8,0,1.1-0.1
		c0.3-0.1,0.7-0.1,0.9-0.2s0.6-0.2,0.8-0.4c0.3-0.2,0.5-0.4,0.8-0.6C463,134.4,463.1,134.3,463.2,134.3z"/>
	<path d="M479.2,137.3h-0.8c-0.2,0-0.3,0-0.4-0.1s-0.2-0.2-0.2-0.3l-0.2-0.9c-0.3,0.2-0.5,0.5-0.8,0.6c-0.3,0.2-0.5,0.4-0.8,0.5
		s-0.6,0.2-0.9,0.3c-0.3,0.1-0.7,0.1-1.1,0.1c-0.4,0-0.8-0.1-1.1-0.2c-0.3-0.1-0.6-0.3-0.9-0.5c-0.3-0.2-0.5-0.5-0.6-0.8
		c-0.1-0.3-0.2-0.7-0.2-1.2c0-0.4,0.1-0.8,0.3-1.2s0.6-0.7,1.1-1c0.5-0.3,1.1-0.5,1.9-0.7c0.8-0.2,1.8-0.3,2.9-0.3v-0.8
		c0-0.8-0.2-1.4-0.5-1.8c-0.3-0.4-0.8-0.6-1.5-0.6c-0.4,0-0.8,0.1-1.1,0.2c-0.3,0.1-0.6,0.2-0.8,0.4s-0.4,0.3-0.6,0.4
		c-0.2,0.1-0.3,0.2-0.5,0.2c-0.1,0-0.2,0-0.3-0.1s-0.2-0.1-0.2-0.2l-0.3-0.6c0.6-0.5,1.2-0.9,1.8-1.2s1.4-0.4,2.1-0.4
		c0.6,0,1.1,0.1,1.5,0.3c0.4,0.2,0.8,0.4,1.1,0.8c0.3,0.3,0.5,0.7,0.7,1.2s0.2,1,0.2,1.6L479.2,137.3L479.2,137.3z M474.6,136.2
		c0.3,0,0.6,0,0.9-0.1c0.3-0.1,0.5-0.2,0.7-0.3c0.2-0.1,0.5-0.3,0.7-0.4c0.2-0.2,0.4-0.4,0.6-0.6v-2.1c-0.8,0-1.5,0.1-2.1,0.2
		s-1,0.2-1.4,0.4c-0.4,0.2-0.6,0.4-0.8,0.6c-0.2,0.2-0.2,0.5-0.2,0.8c0,0.3,0,0.5,0.1,0.7s0.2,0.4,0.4,0.5c0.1,0.1,0.3,0.2,0.5,0.3
		C474.2,136.2,474.4,136.2,474.6,136.2z"/>
	<path d="M487.2,137.3v-10.1h1c0.2,0,0.3,0,0.4,0.1s0.1,0.2,0.1,0.4l0.1,1.6c0.3-0.7,0.8-1.3,1.3-1.7c0.5-0.4,1.1-0.6,1.8-0.6
		c0.3,0,0.5,0,0.8,0.1s0.4,0.2,0.6,0.3l-0.2,1.3c0,0.2-0.1,0.3-0.3,0.3c-0.1,0-0.2,0-0.4-0.1s-0.5-0.1-0.8-0.1
		c-0.6,0-1.1,0.2-1.6,0.5c-0.4,0.4-0.8,0.9-1,1.6v6.5L487.2,137.3L487.2,137.3z"/>
	<path d="M504.6,127c0.6,0,1.2,0.1,1.7,0.3c0.5,0.2,1,0.5,1.3,0.9c0.4,0.4,0.7,0.9,0.9,1.4c0.2,0.6,0.3,1.2,0.3,1.9
		c0,0.3,0,0.5-0.1,0.6c-0.1,0.1-0.2,0.1-0.3,0.1h-6.7c0,0.6,0.1,1.2,0.3,1.7c0.2,0.5,0.4,0.9,0.7,1.2s0.6,0.6,1,0.7s0.8,0.2,1.3,0.2
		c0.4,0,0.8-0.1,1.2-0.2s0.6-0.2,0.8-0.3s0.4-0.2,0.6-0.3s0.3-0.2,0.4-0.2c0.1,0,0.3,0.1,0.3,0.2l0.5,0.6c-0.2,0.3-0.5,0.5-0.8,0.7
		c-0.3,0.2-0.6,0.4-1,0.5c-0.4,0.1-0.7,0.2-1.1,0.3c-0.4,0.1-0.7,0.1-1.1,0.1c-0.7,0-1.3-0.1-1.9-0.4c-0.6-0.2-1.1-0.6-1.5-1
		c-0.4-0.5-0.8-1-1-1.7c-0.2-0.7-0.4-1.4-0.4-2.3c0-0.7,0.1-1.4,0.3-2c0.2-0.6,0.5-1.1,0.9-1.6c0.4-0.4,0.9-0.8,1.5-1.1
		C503.2,127.1,503.8,127,504.6,127z M504.6,128.3c-0.9,0-1.5,0.2-2,0.7c-0.5,0.5-0.8,1.2-0.9,2.1h5.5c0-0.4-0.1-0.8-0.2-1.1
		c-0.1-0.3-0.3-0.6-0.5-0.9c-0.2-0.3-0.5-0.4-0.8-0.6C505.4,128.4,505,128.3,504.6,128.3z"/>
	<path d="M533.1,125.2c-0.1,0.1-0.1,0.2-0.2,0.2c-0.1,0-0.2,0.1-0.3,0.1c-0.1,0-0.2-0.1-0.4-0.2c-0.1-0.1-0.3-0.2-0.6-0.4
		c-0.2-0.1-0.5-0.3-0.8-0.4s-0.7-0.2-1.2-0.2c-0.4,0-0.8,0.1-1.1,0.2c-0.3,0.1-0.6,0.3-0.8,0.5s-0.4,0.4-0.5,0.7
		c-0.1,0.3-0.2,0.6-0.2,0.9c0,0.4,0.1,0.7,0.3,1s0.5,0.5,0.8,0.7s0.7,0.3,1.1,0.5s0.8,0.3,1.3,0.4c0.4,0.1,0.9,0.3,1.3,0.5
		c0.4,0.2,0.8,0.4,1.1,0.7c0.3,0.3,0.6,0.6,0.8,1c0.2,0.4,0.3,0.9,0.3,1.5c0,0.6-0.1,1.2-0.3,1.8c-0.2,0.5-0.5,1-0.9,1.4
		c-0.4,0.4-0.9,0.7-1.5,1c-0.6,0.2-1.3,0.4-2,0.4c-0.9,0-1.8-0.2-2.5-0.5c-0.8-0.3-1.4-0.8-2-1.4l0.6-0.9c0.1-0.1,0.1-0.1,0.2-0.2
		c0.1,0,0.2-0.1,0.3-0.1c0.1,0,0.3,0.1,0.5,0.2c0.2,0.1,0.4,0.3,0.7,0.5c0.3,0.2,0.6,0.3,1,0.5c0.4,0.1,0.9,0.2,1.4,0.2
		c0.5,0,0.9-0.1,1.2-0.2c0.4-0.1,0.7-0.3,0.9-0.5c0.3-0.2,0.4-0.5,0.6-0.8c0.1-0.3,0.2-0.7,0.2-1.1c0-0.4-0.1-0.8-0.3-1.1
		c-0.2-0.3-0.5-0.5-0.8-0.7c-0.3-0.2-0.7-0.3-1.1-0.5c-0.4-0.1-0.8-0.3-1.3-0.4s-0.9-0.3-1.3-0.5c-0.4-0.2-0.8-0.4-1.1-0.7
		c-0.3-0.3-0.6-0.6-0.8-1.1c-0.2-0.4-0.3-1-0.3-1.6c0-0.5,0.1-1,0.3-1.5c0.2-0.5,0.5-0.9,0.9-1.3c0.4-0.4,0.8-0.7,1.4-0.9
		c0.5-0.2,1.2-0.3,1.9-0.3c0.8,0,1.5,0.1,2.2,0.4c0.7,0.3,1.2,0.6,1.7,1.1L533.1,125.2z"/>
	<path d="M545.4,127c0.7,0,1.4,0.1,2,0.4c0.6,0.2,1.1,0.6,1.5,1s0.7,1,1,1.6c0.2,0.6,0.3,1.4,0.3,2.2c0,0.8-0.1,1.5-0.3,2.2
		s-0.5,1.2-1,1.6c-0.4,0.5-0.9,0.8-1.5,1c-0.6,0.2-1.3,0.4-2,0.4c-0.7,0-1.4-0.1-2-0.4s-1.1-0.6-1.5-1c-0.4-0.5-0.7-1-1-1.6
		s-0.3-1.4-0.3-2.2c0-0.8,0.1-1.5,0.3-2.2s0.6-1.2,1-1.6s0.9-0.8,1.5-1C544,127.1,544.7,127,545.4,127z M545.4,136
		c1,0,1.7-0.3,2.2-1c0.5-0.7,0.7-1.6,0.7-2.8c0-1.2-0.2-2.1-0.7-2.8c-0.5-0.7-1.2-1-2.2-1c-0.5,0-0.9,0.1-1.3,0.3
		c-0.4,0.2-0.7,0.4-0.9,0.8c-0.3,0.3-0.4,0.7-0.6,1.2c-0.1,0.5-0.2,1-0.2,1.6c0,0.6,0.1,1.1,0.2,1.6c0.1,0.5,0.3,0.9,0.6,1.2
		s0.6,0.6,0.9,0.7C544.5,135.9,544.9,136,545.4,136z"/>
	<path d="M559.7,122.6v14.7h-1.8v-14.7H559.7z"/>
	<path d="M569.7,127.2v6.5c0,0.8,0.2,1.4,0.5,1.8c0.4,0.4,0.9,0.6,1.6,0.6c0.5,0,1-0.1,1.5-0.4c0.5-0.2,0.9-0.6,1.3-1v-7.5h1.8v10.1
		h-1.1c-0.3,0-0.4-0.1-0.5-0.4l-0.1-1.1c-0.4,0.5-0.9,0.9-1.5,1.2c-0.5,0.3-1.2,0.4-1.9,0.4c-0.6,0-1-0.1-1.5-0.3
		c-0.4-0.2-0.8-0.4-1.1-0.8c-0.3-0.3-0.5-0.7-0.6-1.2c-0.1-0.5-0.2-1-0.2-1.6v-6.5L569.7,127.2L569.7,127.2z"/>
	<path d="M587.6,137.4c-0.8,0-1.4-0.2-1.8-0.7c-0.4-0.4-0.6-1.1-0.6-1.9v-6.2h-1.2c-0.1,0-0.2,0-0.3-0.1c-0.1-0.1-0.1-0.2-0.1-0.3
		v-0.7l1.7-0.2l0.4-3.1c0-0.1,0.1-0.2,0.1-0.2s0.2-0.1,0.3-0.1h0.9v3.5h2.9v1.3h-2.9v6.1c0,0.4,0.1,0.7,0.3,1
		c0.2,0.2,0.5,0.3,0.8,0.3c0.2,0,0.3,0,0.5-0.1c0.1-0.1,0.3-0.1,0.4-0.2c0.1-0.1,0.2-0.1,0.3-0.2c0.1,0,0.1-0.1,0.2-0.1
		c0.1,0,0.2,0.1,0.3,0.2l0.5,0.9c-0.3,0.3-0.7,0.5-1.1,0.7C588.5,137.4,588.1,137.4,587.6,137.4z"/>
	<path d="M599.6,124c0,0.2,0,0.3-0.1,0.5c-0.1,0.1-0.2,0.3-0.3,0.4c-0.1,0.1-0.3,0.2-0.4,0.3c-0.2,0.1-0.3,0.1-0.5,0.1
		c-0.2,0-0.3,0-0.5-0.1c-0.1-0.1-0.3-0.2-0.4-0.3c-0.1-0.1-0.2-0.3-0.3-0.4c-0.1-0.1-0.1-0.3-0.1-0.5c0-0.2,0-0.3,0.1-0.5
		c0.1-0.2,0.2-0.3,0.3-0.4c0.1-0.1,0.3-0.2,0.4-0.3c0.1-0.1,0.3-0.1,0.5-0.1c0.2,0,0.3,0,0.5,0.1c0.2,0.1,0.3,0.2,0.4,0.3
		c0.1,0.1,0.2,0.3,0.3,0.4C599.6,123.6,599.6,123.8,599.6,124z M599.2,127.2v10.1h-1.8v-10.1H599.2z"/>
	<path d="M611.8,127c0.7,0,1.4,0.1,2,0.4c0.6,0.2,1.1,0.6,1.5,1s0.7,1,1,1.6c0.2,0.6,0.3,1.4,0.3,2.2c0,0.8-0.1,1.5-0.3,2.2
		s-0.5,1.2-1,1.6c-0.4,0.5-0.9,0.8-1.5,1c-0.6,0.2-1.3,0.4-2,0.4c-0.7,0-1.4-0.1-2-0.4c-0.6-0.2-1.1-0.6-1.5-1c-0.4-0.5-0.7-1-1-1.6
		c-0.2-0.6-0.3-1.4-0.3-2.2c0-0.8,0.1-1.5,0.3-2.2s0.6-1.2,1-1.6c0.4-0.5,0.9-0.8,1.5-1C610.4,127.1,611,127,611.8,127z M611.8,136
		c1,0,1.7-0.3,2.2-1s0.7-1.6,0.7-2.8c0-1.2-0.2-2.1-0.7-2.8c-0.5-0.7-1.2-1-2.2-1c-0.5,0-0.9,0.1-1.3,0.3c-0.4,0.2-0.7,0.4-0.9,0.8
		c-0.3,0.3-0.4,0.7-0.6,1.2c-0.1,0.5-0.2,1-0.2,1.6c0,0.6,0.1,1.1,0.2,1.6c0.1,0.5,0.3,0.9,0.6,1.2s0.6,0.6,0.9,0.7
		C610.8,135.9,611.3,136,611.8,136z"/>
	<path d="M624.1,137.3v-10.1h1.1c0.3,0,0.4,0.1,0.5,0.4l0.1,1.1c0.4-0.5,0.9-0.9,1.5-1.2c0.5-0.3,1.2-0.5,1.9-0.5
		c0.6,0,1,0.1,1.5,0.3c0.4,0.2,0.8,0.4,1.1,0.8c0.3,0.3,0.5,0.7,0.6,1.2c0.1,0.5,0.2,1,0.2,1.6v6.5h-1.8v-6.5c0-0.8-0.2-1.4-0.5-1.8
		c-0.4-0.4-0.9-0.6-1.6-0.6c-0.5,0-1,0.1-1.5,0.4c-0.5,0.3-0.9,0.6-1.3,1v7.5L624.1,137.3L624.1,137.3z"/>
</g>
<g id="XMLID_46_">
	<g id="XMLID_40_">
		<path id="XMLID_44_" class="st0" d="M35.8,185.6c-0.2,0.7-0.3,1.5-0.3,2.3v70.2c0,0.9,0.1,1.6,0.3,2.3L74.9,223
			C74.9,223,35.8,185.6,35.8,185.6z"/>
		<path id="XMLID_43_" class="st1" d="M90.1,208.5l-45.6-25.6c-1.8-1.1-3.6-1.4-5.1-1l39.2,37.6L90.1,208.5z"/>
		<path id="XMLID_42_" class="st2" d="M106.9,218l-12.2-6.8L82.3,223L95,235.1l11.8-6.5C112.6,225.3,110.5,219.9,106.9,218z"/>
		<path id="XMLID_41_" class="st3" d="M39.3,264.1c1.5,0.4,3.4,0.2,5.2-1l45.7-25.3l-11.7-11.3L39.3,264.1z"/>
	</g>
</g>
<path class="st4" d="M123.5,244.6L123.5,244.6c-0.5,0-1-0.4-1-1v-42c0-0.6,0.4-1,1-1l0,0c0.5,0,1,0.4,1,1v42
	C124.5,244.2,124,244.6,123.5,244.6z"/>
<g>
	<path d="M146.4,196.8c1.4-0.2,3.1-0.4,5-0.4c3.3,0,5.7,0.8,7.3,2.3c1.6,1.5,2.5,3.6,2.5,6.5c0,3-0.9,5.4-2.6,7.1
		c-1.7,1.7-4.5,2.6-8,2.6c-1.7,0-3.1-0.1-4.2-0.2V196.8z M148.7,212.9c0.6,0.1,1.4,0.1,2.4,0.1c5,0,7.7-2.8,7.7-7.7
		c0-4.3-2.4-7-7.3-7c-1.2,0-2.1,0.1-2.7,0.2V212.9z"/>
	<path d="M176,208.2c0,4.8-3.3,6.9-6.5,6.9c-3.5,0-6.2-2.6-6.2-6.7c0-4.4,2.8-6.9,6.4-6.9C173.4,201.4,176,204.2,176,208.2z
		 M165.7,208.3c0,2.9,1.6,5,3.9,5c2.2,0,3.9-2.1,3.9-5.1c0-2.2-1.1-5-3.9-5C166.9,203.2,165.7,205.8,165.7,208.3z"/>
	<path d="M179.7,201.7l1.7,6.6c0.4,1.5,0.7,2.8,1,4.2h0.1c0.3-1.3,0.7-2.7,1.2-4.1l2.1-6.7h2l2,6.5c0.5,1.6,0.9,2.9,1.2,4.3h0.1
		c0.2-1.3,0.6-2.7,1-4.2l1.8-6.6h2.3l-4.2,13.1h-2.1l-2-6.2c-0.5-1.5-0.8-2.8-1.2-4.3h-0.1c-0.3,1.6-0.7,2.9-1.2,4.3l-2.1,6.2h-2.1
		l-3.9-13.1H179.7z"/>
	<path d="M198.4,205.3c0-1.3,0-2.5-0.1-3.5h2.1l0.1,2.2h0.1c0.6-1.2,2.1-2.5,4.3-2.5c1.8,0,4.6,1.1,4.6,5.6v7.8h-2.4v-7.5
		c0-2.1-0.8-3.9-3-3.9c-1.6,0-2.8,1.1-3.2,2.4c-0.1,0.3-0.2,0.7-0.2,1.1v7.9h-2.4V205.3z"/>
	<path d="M213.3,195.6h2.4v19.2h-2.4V195.6z"/>
	<path d="M231.3,208.2c0,4.8-3.3,6.9-6.5,6.9c-3.5,0-6.2-2.6-6.2-6.7c0-4.4,2.8-6.9,6.4-6.9C228.8,201.4,231.3,204.2,231.3,208.2z
		 M221,208.3c0,2.9,1.6,5,3.9,5c2.2,0,3.9-2.1,3.9-5.1c0-2.2-1.1-5-3.9-5C222.3,203.2,221,205.8,221,208.3z"/>
	<path d="M241.5,214.8l-0.2-1.6h-0.1c-0.7,1-2.1,1.9-4,1.9c-2.6,0-4-1.9-4-3.8c0-3.2,2.8-4.9,7.8-4.9v-0.3c0-1.1-0.3-3-2.9-3
		c-1.2,0-2.5,0.4-3.4,1l-0.5-1.6c1.1-0.7,2.6-1.2,4.3-1.2c4,0,4.9,2.7,4.9,5.3v4.9c0,1.1,0.1,2.2,0.2,3.1H241.5z M241.1,208.1
		c-2.6-0.1-5.5,0.4-5.5,2.9c0,1.5,1,2.3,2.2,2.3c1.7,0,2.8-1.1,3.1-2.2c0.1-0.2,0.1-0.5,0.1-0.8V208.1z"/>
	<path d="M258.4,195.6v15.8c0,1.2,0,2.5,0.1,3.4h-2.1l-0.1-2.3h-0.1c-0.7,1.5-2.3,2.6-4.4,2.6c-3.1,0-5.5-2.7-5.5-6.6
		c0-4.3,2.6-7,5.8-7c2,0,3.3,0.9,3.9,2h0.1v-7.8H258.4z M256,207c0-0.3,0-0.7-0.1-1c-0.3-1.5-1.6-2.8-3.4-2.8c-2.4,0-3.9,2.2-3.9,5
		c0,2.6,1.3,4.8,3.8,4.8c1.6,0,3-1.1,3.5-2.8c0.1-0.3,0.1-0.6,0.1-1V207z"/>
	<path d="M268.2,214.8v-11.3h-1.8v-1.8h1.8v-0.6c0-1.8,0.4-3.5,1.5-4.6c0.9-0.9,2.1-1.2,3.2-1.2c0.8,0,1.6,0.2,2,0.4l-0.3,1.8
		c-0.3-0.2-0.8-0.3-1.5-0.3c-2,0-2.5,1.8-2.5,3.8v0.7h3.1v1.8h-3.1v11.3H268.2z"/>
	<path d="M275.8,205.8c0-1.5,0-2.9-0.1-4.1h2.1l0.1,2.6h0.1c0.6-1.8,2-2.9,3.6-2.9c0.3,0,0.5,0,0.7,0.1v2.2
		c-0.2-0.1-0.5-0.1-0.8-0.1c-1.7,0-2.8,1.3-3.2,3.1c-0.1,0.3-0.1,0.7-0.1,1.1v7h-2.3V205.8z"/>
	<path d="M285.6,208.7c0.1,3.2,2.1,4.5,4.4,4.5c1.7,0,2.7-0.3,3.6-0.7l0.4,1.7c-0.8,0.4-2.2,0.8-4.3,0.8c-4,0-6.4-2.6-6.4-6.6
		s2.3-7,6.1-7c4.2,0,5.4,3.8,5.4,6.2c0,0.5-0.1,0.9-0.1,1.1H285.6z M292.5,207c0-1.5-0.6-3.9-3.3-3.9c-2.4,0-3.4,2.2-3.6,3.9H292.5z
		"/>
	<path d="M299,208.7c0.1,3.2,2.1,4.5,4.4,4.5c1.7,0,2.7-0.3,3.6-0.7l0.4,1.7c-0.8,0.4-2.2,0.8-4.3,0.8c-4,0-6.4-2.6-6.4-6.6
		s2.3-7,6.1-7c4.2,0,5.4,3.8,5.4,6.2c0,0.5-0.1,0.9-0.1,1.1H299z M305.9,207c0-1.5-0.6-3.9-3.3-3.9c-2.4,0-3.4,2.2-3.6,3.9H305.9z"
		/>
</g>
<g>
	<path d="M159.8,247.7c-0.8,0.3-2.4,0.8-4.3,0.8c-2.1,0-3.9-0.5-5.2-1.9c-1.2-1.2-2-3.1-2-5.3c0-4.2,2.9-7.3,7.6-7.3
		c1.6,0,2.9,0.4,3.5,0.7l-0.4,1.5c-0.7-0.3-1.7-0.6-3.1-0.6c-3.4,0-5.6,2.1-5.6,5.7c0,3.6,2.1,5.7,5.4,5.7c1.2,0,2-0.2,2.4-0.4v-4.2
		h-2.9v-1.5h4.6V247.7z"/>
	<path d="M171.7,243.2c0,3.8-2.6,5.4-5,5.4c-2.7,0-4.8-2-4.8-5.2c0-3.4,2.2-5.4,5-5.4C169.8,238,171.7,240.1,171.7,243.2z
		 M163.8,243.3c0,2.2,1.3,3.9,3.1,3.9c1.7,0,3.1-1.7,3.1-3.9c0-1.7-0.9-3.9-3-3.9C164.7,239.4,163.8,241.4,163.8,243.3z"/>
	<path d="M183.2,243.2c0,3.8-2.6,5.4-5,5.4c-2.7,0-4.8-2-4.8-5.2c0-3.4,2.2-5.4,5-5.4C181.2,238,183.2,240.1,183.2,243.2z
		 M175.2,243.3c0,2.2,1.3,3.9,3.1,3.9c1.7,0,3.1-1.7,3.1-3.9c0-1.7-0.9-3.9-3-3.9C176.1,239.4,175.2,241.4,175.2,243.3z"/>
	<path d="M194.2,238.2c0,0.7-0.1,1.6-0.1,2.8v5.9c0,2.3-0.5,3.8-1.4,4.6c-1,0.9-2.4,1.2-3.7,1.2c-1.2,0-2.5-0.3-3.4-0.8l0.5-1.4
		c0.7,0.4,1.7,0.8,3,0.8c1.9,0,3.2-1,3.2-3.5v-1.1h0c-0.6,0.9-1.6,1.7-3.2,1.7c-2.5,0-4.3-2.1-4.3-5c0-3.4,2.2-5.4,4.5-5.4
		c1.7,0,2.7,0.9,3.1,1.8h0l0.1-1.5H194.2z M192.3,242.2c0-0.3,0-0.6-0.1-0.8c-0.3-1.1-1.2-2-2.6-2c-1.7,0-3,1.5-3,3.8
		c0,2,1,3.7,3,3.7c1.1,0,2.1-0.7,2.5-1.9c0.1-0.3,0.1-0.7,0.1-1V242.2z"/>
	<path d="M197.1,233.5h1.8v14.9h-1.8V233.5z"/>
	<path d="M203,243.6c0,2.5,1.6,3.5,3.5,3.5c1.3,0,2.1-0.2,2.8-0.5l0.3,1.3c-0.6,0.3-1.7,0.6-3.4,0.6c-3.1,0-5-2.1-5-5.1
		s1.8-5.5,4.7-5.5c3.3,0,4.2,2.9,4.2,4.8c0,0.4,0,0.7-0.1,0.9H203z M208.4,242.3c0-1.2-0.5-3-2.5-3c-1.9,0-2.7,1.7-2.8,3H208.4z"/>
	<path d="M216.9,234.4c0.9-0.1,2-0.3,3.5-0.3c1.8,0,3.1,0.4,3.9,1.2c0.8,0.7,1.2,1.7,1.2,3c0,1.3-0.4,2.3-1.1,3
		c-1,1-2.5,1.6-4.3,1.6c-0.5,0-1,0-1.5-0.1v5.7h-1.8V234.4z M218.7,241.2c0.4,0.1,0.9,0.1,1.5,0.1c2.2,0,3.5-1.1,3.5-3
		c0-1.9-1.3-2.8-3.3-2.8c-0.8,0-1.4,0.1-1.7,0.1V241.2z"/>
	<path d="M227.8,233.5h1.8v14.9h-1.8V233.5z"/>
	<path d="M238.3,248.4l-0.1-1.3h-0.1c-0.6,0.8-1.6,1.5-3.1,1.5c-2,0-3.1-1.4-3.1-2.9c0-2.5,2.2-3.8,6.1-3.8v-0.2
		c0-0.8-0.2-2.4-2.3-2.4c-0.9,0-1.9,0.3-2.6,0.8l-0.4-1.2c0.8-0.5,2-0.9,3.3-0.9c3.1,0,3.8,2.1,3.8,4.2v3.8c0,0.9,0,1.7,0.2,2.4
		H238.3z M238,243.2c-2,0-4.3,0.3-4.3,2.3c0,1.2,0.8,1.8,1.7,1.8c1.3,0,2.1-0.8,2.4-1.7c0.1-0.2,0.1-0.4,0.1-0.6V243.2z"/>
	<path d="M243.3,238.2l2.2,6c0.2,0.7,0.5,1.5,0.6,2.1h0c0.2-0.6,0.4-1.4,0.6-2.1l2-6h1.9l-2.7,7.2c-1.3,3.5-2.2,5.3-3.5,6.4
		c-0.9,0.8-1.8,1.1-2.2,1.2l-0.5-1.6c0.5-0.1,1.1-0.4,1.6-0.9c0.5-0.4,1.1-1.1,1.5-2.1c0.1-0.2,0.1-0.3,0.1-0.4c0-0.1,0-0.3-0.1-0.5
		l-3.7-9.4H243.3z"/>
</g>
<g>
	<path class="st4" d="M173.1,375.7L173.1,375.7c-0.5,0-1-0.4-1-1v-42c0-0.6,0.4-1,1-1l0,0c0.5,0,1,0.4,1,1v42
		C174.1,375.2,173.7,375.7,173.1,375.7z"/>
	<g>
		<path d="M143.7,356.4c-0.1-9.6,7.8-14.4,8.2-14.5c-4.5-6.6-11.4-7.5-13.9-7.6c-6-0.6-11.5,3.5-14.5,3.5c-3,0-7.6-3.4-12.5-3.4
			c-6.5,0.1-12.4,3.8-15.8,9.6c-6.7,11.8-1.7,29.1,4.8,38.6c3.2,4.6,7,9.9,12,9.6c4.8-0.3,6.6-3.1,12.4-3.1s7.5,3.1,12.5,3
			c5.2-0.1,8.4-4.8,11.7-9.4c3.6-5.4,5.2-10.7,5.2-10.9C153.8,371.8,143.7,367.9,143.7,356.4z M134.1,327.9c2.6-3.3,4.5-7.8,4-12.3
			c-3.8,0.1-8.4,2.5-11.2,5.8c-2.5,2.9-4.6,7.5-4,11.9C127.1,333.7,131.4,331.1,134.1,327.9z"/>
	</g>
	<text transform="matrix(0.991 0 0 1 193.7963 346.4508)" style="font-family:'MyriadPro-Regular'; font-size:27px;">Download free</text>
	<text transform="matrix(0.991 0 0 1 196.5189 379.4106)" style="font-family:'MyriadPro-Regular'; font-size:21px;">App Store</text>
</g>
</svg>
